<svg width="76" height="20" viewBox="0 0 76 20" fill="none" xmlns="http://www.w3.org/2000/svg">
<path d="M10.076 19.26C6.97333 19.26 4.59 18.4453 2.926 16.816C1.262 15.1867 0.43 12.8553 0.43 9.822C0.43 6.858 1.25333 4.57 2.9 2.958C4.564 1.346 6.93867 0.539999 10.024 0.539999C12.5373 0.539999 14.5827 1.06867 16.16 2.126C17.7373 3.18333 18.6733 4.65667 18.968 6.546H16.628C16.3333 5.05533 15.614 3.894 14.47 3.062C13.326 2.21267 11.8873 1.788 10.154 1.788C7.90067 1.788 6.16733 2.48133 4.954 3.868C3.758 5.25467 3.16 7.23933 3.16 9.822C3.16 12.4567 3.76667 14.4847 4.98 15.906C6.19333 17.31 7.93533 18.012 10.206 18.012C11.9393 18.012 13.3693 17.596 14.496 16.764C15.6227 15.932 16.3333 14.762 16.628 13.254H18.968C18.6733 15.1433 17.7373 16.6167 16.16 17.674C14.5827 18.7313 12.5547 19.26 10.076 19.26ZM34.8707 14.268H24.3927L22.0267 19H20.2067L29.6707 0.539999H31.0747L39.9927 19H37.0807L34.8707 14.268ZM34.2727 13.02L29.8007 3.452L25.0167 13.02H34.2727ZM48.0864 10.056L44.8624 13.28V19H42.1584V0.799999H44.8624V10.862L55.0284 0.799999H57.3684L49.9064 8.236L58.1744 19H54.9764L48.0864 10.056ZM60.4904 0.799999H75.9084V2.048H63.1944V8.626H74.4264V9.848H63.1944V17.752H75.9084V19H60.4904V0.799999Z" fill="black"/>
</svg>
